<svg xmlns="http://www.w3.org/2000/svg" viewBox="0 0 45 45">
  <g fill="none" fill-rule="evenodd" stroke="#000" stroke-width="1.5" stroke-linecap="round" stroke-linejoin="round">
    <path d="M22 10c10.5 1 16.5 8 16 29H7c-.5-21 5.5-28 16-29z" fill="#fff" stroke="#000"/>
    <path d="M18.5 19c1.5-1.5 5-5 5-7s-2-5-5-5c-3 0-5 2.5-5 5 0 2 2 5 3 6-.5.5-2 1-2.5 2.5-1 2.5 0 5.5 3.5 8-2.5.5-5 2-5 5 0 2 2.5 5 6 5.5 0 0 1-1.5 1.5-2.5.5-1 .5-2.5.5-2.5 1-1 2.5-2.5 2.5-2.5 0-2.5-1-5-2.5-6.5" fill="#fff"/>
    <path d="M26 16c-1 0-2-1-2-2s1-2 2-2c1.5 0 2.5 1 2.5 2 0 1-1 2-2.5 2z" fill="#fff"/>
    <path d="M24.5 28c-1 0-2 1-2 2 0 1 1 2 2 2 1 0 2-1 2-2 0-1-1-2-2-2z" fill="#fff"/>
  </g>
</svg>
