<svg xmlns="http://www.w3.org/2000/svg" viewBox="0 0 45 45">
  <g fill="#fff" fill-rule="evenodd" stroke="#000" stroke-width="1.5" stroke-linecap="round" stroke-linejoin="round">
    <path d="M22 10c10.5 1 16.5 8 16 29H7c-.5-21 5.5-28 16-29z"/>
    <path d="M22 10c0 3-5 5-5 5-1-1-2-3-2-5 0-2.5 2.5-5 5-5s5 2.5 5 5c0 2-1 4-2 5 0 0-5-2-5-5"/>
    <path d="M13 30c0-3.5 4-8.5 9-8.5s9 5 9 8.5"/>
    <path d="M11.5 37c5.5 3.5 15.5 3.5 21 0v-7s9-4.5 6-10.5c-4-6.5-13.5-3.5-16 4V27v-3.5c-3.5-7.5-13-10.5-16-4-3 6 6 10.5 6 10.5v7"/>
  </g>
</svg>
